<svg width="450" height="482" viewBox="0 0 450 482" fill="none" xmlns="http://www.w3.org/2000/svg">
<path d="M229.316 238.371C237.439 250.167 248.213 253.612 272.23 250.167C257.933 253.312 247.456 258.982 240.155 266.144C240.153 266.144 240.151 266.147 240.146 266.147C216.42 289.261 225.664 327.905 242.384 345.902C262.63 367.769 296.305 389.857 337.102 395.791C339.048 396.091 341.047 396.34 343.105 396.544C371.305 397.943 400.737 385.186 420.167 365.081C433.766 351.03 442.538 333.375 442.538 314.444V144.867C442.538 137.369 437.18 128.123 430.646 124.359L237.024 12.5179C230.551 8.75381 219.896 8.75381 213.359 12.5179L19.7422 124.359C13.2641 128.123 7.90625 137.367 7.90625 144.867V368.566C7.90625 376.08 13.2641 385.315 19.7422 389.079L123.823 449.222L129.062 452.255C159.849 469.479 184.278 474.218 201.941 470.618C212.366 468.52 220.367 463.477 225.898 456.373C240.617 437.442 237.383 403.903 214.07 372.48C179.162 325.397 185.991 285.527 206.476 256.73C201.709 256.134 196.409 256.73 190.695 260.011C191.818 254.405 196.29 248.001 203.239 245.088C197.82 245.976 191.052 245.156 186.399 240.832C192.997 240.989 198.233 238.894 202.297 234.954C195.995 233.44 192.05 227.245 193.641 220.024C202.944 230.571 215.6 236.909 229.316 238.364V238.371ZM306.198 327.478C261.516 316.987 262.28 264.593 309.671 256.737C324.273 254.318 338.516 260.993 340.986 272.841C357.533 220.922 308.787 204.361 300.72 203.011C300.72 197.201 272.523 167.217 220.66 182.442C168.737 197.639 143.248 184.671 137.891 164.967C133.77 179.981 139.421 195.059 149.959 202.123C144.955 202.059 138.777 199.73 132.064 192.284C133.77 203.105 139.421 211.085 146.37 216.457C141.542 215.482 138.186 214.059 132.064 208.851C132.652 215.545 137.007 230.763 146.602 235.683C140.6 236.027 136.536 242.058 137.42 248.236C142.721 243.86 151.433 242.63 155.785 248.236C147.017 257.623 140.6 270.607 137.42 282.68C140.187 285.049 143.78 287.923 148.194 288.949C139.714 308.587 137.18 331.465 139.419 354.659C144.13 399.38 125.584 402.661 93.9734 384.619L93.2656 384.206L60.7133 365.405C54.2352 361.648 48.8797 352.425 48.8797 344.909V168.565C48.8797 161.044 54.2352 151.816 60.7133 148.057L213.357 59.8851C219.891 56.128 230.548 56.128 237.022 59.8851L389.673 148.057C396.207 151.814 401.502 161.041 401.502 168.565V210.666C403.623 298.748 356.591 336.712 306.198 327.478Z" fill="white" fill-opacity="0.05"/>
</svg>
